<svg width="254" height="58" viewBox="0 0 254 58" fill="none" xmlns="http://www.w3.org/2000/svg">
<g id="scroll-logo 2">
<path id="Vector" d="M9.72983 29.0814C13.9167 32.5923 18.034 36.0418 22.266 39.5896C25.9981 35.1528 29.6934 30.761 33.4502 26.2955C35.2241 27.7745 36.9406 29.2083 38.7555 30.7201C33.5362 36.9349 28.3743 43.08 23.1427 49.3112C15.4162 42.8383 7.74699 36.4105 0.00819397 29.9294C1.30277 28.3685 2.55229 26.8486 3.81819 25.341C10.5041 17.381 17.1901 9.42503 23.8883 1.47729C24.0644 1.26836 24.3553 1.03074 24.597 1.02665C27.4156 0.993873 30.2301 1.00616 33.3068 1.00616C25.3672 10.4615 17.5833 19.7284 9.72573 29.0814H9.72983Z" fill="white"/>
<path id="Vector_2" d="M21.8359 57.8492C29.7017 48.484 37.3995 39.3153 45.1915 30.0402C40.9923 26.517 36.8751 23.0675 32.6637 19.5361C28.9274 23.977 25.2321 28.3606 21.4713 32.8301C19.6933 31.3471 17.9808 29.9173 16.17 28.4056C21.3852 22.1949 26.5636 16.0293 31.7829 9.81445C39.5217 16.2996 47.1743 22.7111 54.9213 29.2004C53.7005 30.6588 52.5124 32.0886 51.3121 33.5143C44.6712 41.417 38.0263 49.3238 31.3691 57.2101C31.1192 57.5091 30.6767 57.8164 30.3162 57.8205C27.5918 57.8697 24.8634 57.8492 21.84 57.8492H21.8359Z" fill="white"/>
<path id="Vector_3" d="M72.4269 36.1355C74.6883 35.2384 76.7736 34.3985 78.867 33.5955C79.0637 33.5177 79.4651 33.5669 79.5717 33.7062C80.8458 35.4022 82.6934 35.9553 84.6435 36.2462C87.1507 36.619 89.6784 36.7255 92.1692 36.1396C92.9353 35.9594 93.7465 35.603 94.32 35.0868C95.2623 34.2428 94.8895 32.9851 93.6687 32.6615C93.0869 32.5058 92.4601 32.5017 91.8497 32.473C88.6501 32.3337 85.4464 32.2969 82.255 32.047C80.2067 31.8872 78.2525 31.2235 76.5155 30.0559C73.0496 27.729 72.6686 23.2635 75.7166 20.408C77.6953 18.5522 80.1411 17.6304 82.7426 17.0815C87.6669 16.0368 92.4355 16.4505 96.9666 18.7406C98.5848 19.56 100.015 20.6252 101.018 22.3499C98.8224 23.2389 96.7208 24.0951 94.6068 24.9309C94.4552 24.9923 94.1685 24.9432 94.0578 24.8325C92.3126 23.1324 90.0922 22.7678 87.8185 22.7432C86.192 22.7227 84.5615 22.948 82.9351 23.1119C82.509 23.157 82.0502 23.3167 81.6979 23.5585C81.3619 23.792 80.9031 24.218 80.9318 24.5212C80.9687 24.894 81.3865 25.4225 81.7511 25.529C82.7835 25.8404 83.861 26.078 84.9343 26.1558C87.5849 26.3525 90.2479 26.3852 92.8944 26.6065C94.3446 26.7294 95.8154 26.9629 97.2124 27.3726C102.505 28.9334 104.042 34.8287 100.252 38.864C98.339 40.9001 95.84 41.7767 93.1852 42.2396C88.7976 43.0016 84.4181 42.8951 80.1124 41.6947C77.3963 40.937 75.0283 39.5768 73.2462 37.3236C72.9799 36.9836 72.7546 36.6108 72.431 36.1315L72.4269 36.1355Z" fill="white"/>
<path id="Vector_4" d="M180.656 42.7312C176.014 42.6247 171.815 40.7361 168.955 36.5001C165.284 31.0596 166.399 24.0705 171.434 19.8508C176.837 15.3197 184.789 15.1805 190.328 19.5189C197.37 25.0332 196.895 35.3612 189.386 40.2896C186.858 41.9487 184.08 42.7066 180.66 42.7353L180.656 42.7312ZM181.028 35.4226C183.495 35.4144 185.768 34.7221 187.591 32.9359C189.767 30.8096 189.603 27.8231 187.26 25.8935C183.97 23.1856 178.439 23.1036 174.973 25.7092C172.187 27.8067 172.11 31.121 174.822 33.321C176.612 34.7712 178.701 35.3898 181.028 35.4226Z" fill="white"/>
<path id="Vector_5" d="M135.591 33.9196C134.882 35.7919 133.862 37.2544 132.539 38.5162C127.197 43.6127 116.902 43.9322 111.174 39.2782C105.013 34.276 105.238 23.5466 112.317 19.0238C118.114 15.3203 126.242 15.4596 131.543 19.5195C133.457 20.9861 134.747 22.9116 135.603 25.2918C133.489 25.9227 131.445 26.5495 129.388 27.1149C129.221 27.1599 128.852 26.8773 128.737 26.6601C126.377 22.2561 120.408 22.2315 117.463 23.7637C114.923 25.0829 113.624 27.2214 113.817 30.0891C113.997 32.8094 115.578 34.5751 118.061 35.5747C121.482 36.9471 125.611 36.1933 127.733 33.8213C127.824 33.7189 127.922 33.6206 128.004 33.514C128.796 32.509 129.819 32.1908 131.072 32.5595C132.535 32.9938 133.989 33.4362 135.591 33.9196Z" fill="white"/>
<path id="Vector_6" d="M230.776 16.3975H238.093C238.093 16.8358 238.093 17.2291 238.093 17.6265C238.068 23.108 238.068 28.5895 237.994 34.0668C237.982 35.0706 238.298 35.3123 239.26 35.3C243.586 35.2508 247.917 35.2795 252.247 35.2795C252.653 35.2795 253.054 35.2795 253.624 35.2795C253.435 37.6556 253.251 39.9416 253.066 42.2767H230.78V16.3975H230.776Z" fill="white"/>
<path id="Vector_7" d="M201.274 42.281V16.4141H208.579C208.579 16.8442 208.579 17.2416 208.579 17.639C208.55 23.1205 208.542 28.602 208.477 34.0835C208.464 35.0011 208.686 35.3166 209.656 35.3043C214.02 35.2551 218.383 35.2838 222.75 35.2838H224.11C223.917 37.6681 223.737 39.95 223.549 42.2851H201.274V42.281Z" fill="white"/>
<path id="Vector_8" d="M161.905 23.8008C159.791 23.9769 157.738 23.9687 155.776 24.3702C154.457 24.6406 153.174 25.3657 152.015 26.1073C150.302 27.2052 149.463 28.8644 149.446 30.9415C149.422 34.3131 149.34 37.6847 149.282 41.0523C149.278 41.421 149.282 41.7897 149.282 42.228H141.56V17.2336H149.586V26.9143C149.651 26.9348 149.717 26.9594 149.782 26.9799C149.938 26.5743 150.102 26.1687 150.245 25.7549C151.318 22.6209 152.912 19.872 155.804 18.0407C157.48 16.9796 159.848 16.316 161.905 16.402V23.7926V23.8008Z" fill="white"/>
</g>
</svg>
